<mxfile host="Electron" modified="2024-06-25T11:24:41.989Z" agent="Mozilla/5.0 (Windows NT 10.0; Win64; x64) AppleWebKit/537.36 (KHTML, like Gecko) draw.io/22.1.2 Chrome/114.0.5735.289 Electron/25.9.4 Safari/537.36" etag="Br7ykXA4ShzybNLaPyx0" version="22.1.2" type="device">
  <diagram name="Seite-1" id="0Hx22hpihrPdas3sqQu_">
    <mxGraphModel dx="701" dy="369" grid="1" gridSize="10" guides="1" tooltips="1" connect="1" arrows="1" fold="1" page="1" pageScale="1" pageWidth="827" pageHeight="1169" math="0" shadow="0">
      <root>
        <mxCell id="0" />
        <mxCell id="1" parent="0" />
        <mxCell id="uteRZzkSLJ6UjPzQ1UW6-1" value="&lt;b&gt;DNADatabase             &lt;/b&gt;" style="swimlane;fontStyle=0;childLayout=stackLayout;horizontal=1;startSize=26;fillColor=none;horizontalStack=0;resizeParent=1;resizeParentMax=0;resizeLast=0;collapsible=1;marginBottom=0;whiteSpace=wrap;html=1;" parent="1" vertex="1">
          <mxGeometry x="10" y="160" width="280" height="120" as="geometry" />
        </mxCell>
        <mxCell id="uteRZzkSLJ6UjPzQ1UW6-2" value=" - sequences: List&amp;lt;DNASequence&amp;gt; " style="text;strokeColor=none;fillColor=none;align=left;verticalAlign=top;spacingLeft=4;spacingRight=4;overflow=hidden;rotatable=0;points=[[0,0.5],[1,0.5]];portConstraint=eastwest;whiteSpace=wrap;html=1;" parent="uteRZzkSLJ6UjPzQ1UW6-1" vertex="1">
          <mxGeometry y="26" width="280" height="26" as="geometry" />
        </mxCell>
        <mxCell id="uteRZzkSLJ6UjPzQ1UW6-15" value="" style="line;strokeWidth=1;fillColor=none;align=left;verticalAlign=middle;spacingTop=-1;spacingLeft=3;spacingRight=3;rotatable=0;labelPosition=right;points=[];portConstraint=eastwest;strokeColor=inherit;" parent="uteRZzkSLJ6UjPzQ1UW6-1" vertex="1">
          <mxGeometry y="52" width="280" height="8" as="geometry" />
        </mxCell>
        <mxCell id="uteRZzkSLJ6UjPzQ1UW6-4" value="+ addSequence(sequence: DNASequence): void" style="text;strokeColor=none;fillColor=none;align=left;verticalAlign=top;spacingLeft=4;spacingRight=4;overflow=hidden;rotatable=0;points=[[0,0.5],[1,0.5]];portConstraint=eastwest;whiteSpace=wrap;html=1;" parent="uteRZzkSLJ6UjPzQ1UW6-1" vertex="1">
          <mxGeometry y="60" width="280" height="30" as="geometry" />
        </mxCell>
        <mxCell id="uteRZzkSLJ6UjPzQ1UW6-13" value="+ findById(id: String): DNASequence" style="text;strokeColor=none;fillColor=none;align=left;verticalAlign=top;spacingLeft=4;spacingRight=4;overflow=hidden;rotatable=0;points=[[0,0.5],[1,0.5]];portConstraint=eastwest;whiteSpace=wrap;html=1;" parent="uteRZzkSLJ6UjPzQ1UW6-1" vertex="1">
          <mxGeometry y="90" width="280" height="30" as="geometry" />
        </mxCell>
        <mxCell id="uteRZzkSLJ6UjPzQ1UW6-5" value="Sequence" style="swimlane;fontStyle=1;align=center;verticalAlign=top;childLayout=stackLayout;horizontal=1;startSize=26;horizontalStack=0;resizeParent=1;resizeParentMax=0;resizeLast=0;collapsible=1;marginBottom=0;whiteSpace=wrap;html=1;" parent="1" vertex="1">
          <mxGeometry x="350" y="160" width="260" height="238" as="geometry" />
        </mxCell>
        <mxCell id="uteRZzkSLJ6UjPzQ1UW6-6" value="- sequenceDNA: String&lt;br&gt;- identNummer: String&lt;br&gt;- foundPlace: String&lt;br&gt;- foundTime: String" style="text;strokeColor=none;fillColor=none;align=left;verticalAlign=top;spacingLeft=4;spacingRight=4;overflow=hidden;rotatable=0;points=[[0,0.5],[1,0.5]];portConstraint=eastwest;whiteSpace=wrap;html=1;container=1;fontStyle=0" parent="uteRZzkSLJ6UjPzQ1UW6-5" vertex="1">
          <mxGeometry y="26" width="260" height="64" as="geometry" />
        </mxCell>
        <mxCell id="uteRZzkSLJ6UjPzQ1UW6-7" value="" style="line;strokeWidth=1;fillColor=none;align=left;verticalAlign=middle;spacingTop=-1;spacingLeft=3;spacingRight=3;rotatable=0;labelPosition=right;points=[];portConstraint=eastwest;strokeColor=inherit;" parent="uteRZzkSLJ6UjPzQ1UW6-5" vertex="1">
          <mxGeometry y="90" width="260" height="8" as="geometry" />
        </mxCell>
        <mxCell id="uteRZzkSLJ6UjPzQ1UW6-8" value="+ Sequence(sequenceDNA: String, identNummer: String, foundPlace: String, foundTime: String): void&lt;br&gt;+ validSequence(): boolean &lt;br&gt;" style="text;strokeColor=none;fillColor=none;align=left;verticalAlign=top;spacingLeft=4;spacingRight=4;overflow=hidden;rotatable=0;points=[[0,0.5],[1,0.5]];portConstraint=eastwest;whiteSpace=wrap;html=1;container=1;" parent="uteRZzkSLJ6UjPzQ1UW6-5" vertex="1">
          <mxGeometry y="98" width="260" height="140" as="geometry">
            <mxRectangle y="98" width="210" height="30" as="alternateBounds" />
          </mxGeometry>
        </mxCell>
        <mxCell id="uteRZzkSLJ6UjPzQ1UW6-10" value="+ getSequenceDNA(): String&lt;br&gt;+ getIdentNumber(): String&lt;br&gt;+ getFoundPlace(): String&lt;br&gt;+ getFoundTime(): String" style="text;strokeColor=none;fillColor=none;align=left;verticalAlign=top;spacingLeft=4;spacingRight=4;overflow=hidden;rotatable=0;points=[[0,0.5],[1,0.5]];portConstraint=eastwest;whiteSpace=wrap;html=1;container=1;fontStyle=0;direction=south;" parent="uteRZzkSLJ6UjPzQ1UW6-8" vertex="1">
          <mxGeometry y="62" width="260" height="78" as="geometry" />
        </mxCell>
        <mxCell id="uteRZzkSLJ6UjPzQ1UW6-16" value="" style="endArrow=diamondThin;endFill=0;endSize=24;html=1;rounded=0;exitX=0.999;exitY=0.091;exitDx=0;exitDy=0;exitPerimeter=0;entryX=0.005;entryY=0.078;entryDx=0;entryDy=0;entryPerimeter=0;" parent="1" source="uteRZzkSLJ6UjPzQ1UW6-1" target="uteRZzkSLJ6UjPzQ1UW6-5" edge="1">
          <mxGeometry width="160" relative="1" as="geometry">
            <mxPoint x="220" y="340" as="sourcePoint" />
            <mxPoint x="380" y="340" as="targetPoint" />
          </mxGeometry>
        </mxCell>
      </root>
    </mxGraphModel>
  </diagram>
</mxfile>
